<svg width="366" height="66" viewBox="0 0 366 66" fill="none" xmlns="http://www.w3.org/2000/svg">
<path d="M101.488 32H85.808L83.6 29.792V25.312H88.08V27.52H99.248V23.072H85.808L83.6 21.472V11.872L85.808 9.6H101.488L103.696 11.872V16.32H99.248V14.08H88.08V18.56H101.488L103.696 20.8V29.792L101.488 32ZM111.361 27.52H122.529V14.08H111.361V27.52ZM124.769 32H109.089L106.881 29.792V11.872L109.089 9.6H124.769L126.977 11.872V29.792L124.769 32ZM130.163 9.6H134.643V27.52H149.171V32H130.163V9.6ZM155.573 20.832H166.741V14.08H160.021L155.573 18.592V20.832ZM155.573 32H151.093V16.352L157.781 9.6H171.189V32H166.741V25.312H155.573V32ZM194.477 32H190.029L178.861 17.056V32H174.381V9.6H178.861L190.029 24.512V9.6H194.477V32ZM201.823 20.832H212.991V14.08H206.271L201.823 18.592V20.832ZM201.823 32H197.343V16.352L204.031 9.6H217.439V32H212.991V25.312H201.823V32Z" fill="white"/>
<path d="M88.08 49.832H99.248V43.08H88.08V49.832ZM88.08 61H83.6V38.6H101.488L103.696 40.872V52.072L101.488 54.312H88.08V61ZM111.049 49.832H122.217V43.08H111.049V49.832ZM126.665 61H122.217V58.792L119.977 56.52L117.737 54.312H111.049V61H106.569V38.6H124.457L126.665 40.872V52.072L124.457 54.312L126.665 56.52V61ZM134.33 56.52H145.498V43.08H134.33V56.52ZM147.738 61H132.058L129.85 58.792V40.872L132.058 38.6H147.738L149.946 40.872V58.792L147.738 61ZM157.611 56.52H168.779V43.08H157.611V56.52ZM171.019 61H155.339L153.131 58.792V40.872L155.339 38.6H171.019L173.227 40.872V58.792L171.019 61ZM180.893 61H176.413V38.6H195.421V43.08H180.893V47.592H194.301V52.072H180.893V61ZM214.955 56.52H226.123V43.08H214.955V56.52ZM228.363 61H212.683L210.475 58.792V40.872L212.683 38.6H228.363L230.571 40.872V58.792L228.363 61ZM238.236 61H233.756V38.6H252.764V43.08H238.236V47.592H251.644V52.072H238.236V61ZM284.299 61L280.907 57L277.579 61H273.099L267.499 54.312V38.6H271.979V52.072L275.371 56.52L278.667 52.072V38.6H283.147V52.072L286.539 56.52L289.867 52.072V38.6H294.315V54.312L288.779 61H284.299ZM301.674 56.52H312.842V43.08H301.674V56.52ZM315.082 61H299.402L297.194 58.792V40.872L299.402 38.6H315.082L317.29 40.872V58.792L315.082 61ZM324.955 49.832H336.123V43.08H324.955V49.832ZM340.571 61H336.123V58.792L333.883 56.52L331.643 54.312H324.955V61H320.475V38.6H338.363L340.571 40.872V52.072L338.363 54.312L340.571 56.52V61ZM348.236 61H343.756V38.6H348.236V47.592H354.924L359.404 43.112V38.6H363.852V45.352L359.404 49.832L363.852 54.312V61H359.404V56.52L354.924 52.072H348.236V61Z" fill="white"/>
<g clip-path="url(#clip0_221_13)">
<path d="M60.6859 50.7867L50.616 61.2782C50.3971 61.5061 50.1322 61.6878 49.8379 61.812C49.5436 61.9362 49.2261 62.0002 48.9053 62H1.16904C0.941266 62 0.718453 61.9353 0.527983 61.814C0.337511 61.6927 0.187675 61.5199 0.0968849 61.317C0.00609535 61.1141 -0.0216931 60.8898 0.016934 60.6717C0.055561 60.4536 0.158921 60.2512 0.314314 60.0895L10.3918 49.598C10.6101 49.3707 10.8741 49.1894 11.1675 49.0652C11.4609 48.941 11.7773 48.8767 12.0974 48.8762H59.831C60.0587 48.8762 60.2815 48.9409 60.4721 49.0622C60.6624 49.1835 60.8122 49.3563 60.9034 49.5592C60.994 49.7622 61.0217 49.9864 60.9831 50.2045C60.9444 50.4226 60.8412 50.6249 60.6859 50.7867ZM50.616 29.6599C50.3971 29.432 50.1322 29.2503 49.8379 29.1261C49.5436 29.002 49.2261 28.9379 48.9053 28.9381H1.16904C0.941266 28.9381 0.718453 29.0027 0.527983 29.1241C0.337511 29.2455 0.187675 29.4182 0.0968849 29.6211C0.00609535 29.8241 -0.0216931 30.0483 0.016934 30.2664C0.055561 30.4845 0.158921 30.6868 0.314314 30.8486L10.3918 41.3401C10.6101 41.5674 10.8741 41.7487 11.1675 41.8729C11.4609 41.997 11.7773 42.0614 12.0974 42.0619H59.831C60.0587 42.0619 60.2815 41.9973 60.4721 41.8759C60.6624 41.7545 60.8122 41.5818 60.9034 41.3789C60.994 41.1759 61.0217 40.9517 60.9831 40.7336C60.9444 40.5155 60.8412 40.3132 60.6859 40.1514L50.616 29.6599ZM1.16904 22.1238H48.9053C49.2261 22.1239 49.5436 22.06 49.8379 21.9358C50.1322 21.8116 50.3971 21.6299 50.616 21.402L60.6859 10.9105C60.8412 10.7487 60.9444 10.5464 60.9831 10.3283C61.0217 10.1102 60.994 9.88596 60.9034 9.68303C60.8122 9.48009 60.6624 9.30734 60.4721 9.186C60.2815 9.06465 60.0587 9.00001 59.831 9H12.0974C11.7773 9.00053 11.4609 9.06486 11.1675 9.18902C10.8741 9.31318 10.6101 9.49452 10.3918 9.72181L0.316912 20.2133C0.161669 20.3749 0.0583545 20.5771 0.0196399 20.7948C-0.0190748 21.0127 0.00849314 21.2368 0.0989625 21.4396C0.189432 21.6425 0.338871 21.8152 0.528951 21.9368C0.719033 22.0583 0.94149 22.1233 1.16904 22.1238Z" fill="url(#paint0_linear_221_13)"/>
</g>
<defs>
<linearGradient id="paint0_linear_221_13" x1="5.14911" y1="63.2631" x2="53.5928" y2="7.04928" gradientUnits="userSpaceOnUse">
<stop offset="0.08" stop-color="#9945FF"/>
<stop offset="0.3" stop-color="#8752F3"/>
<stop offset="0.5" stop-color="#5497D5"/>
<stop offset="0.6" stop-color="#43B4CA"/>
<stop offset="0.72" stop-color="#28E0B9"/>
<stop offset="0.97" stop-color="#19FB9B"/>
</linearGradient>
<clipPath id="clip0_221_13">
<rect width="61" height="53" fill="white" transform="translate(0 9)"/>
</clipPath>
</defs>
</svg>
